The Pirate Bay Search Torrents  |  Browse Torrents  |  Recent Torrents  |  TV shows  |  Music  |  Top 100

Audio Video Applications Games Other
Details for this torrent 
empty
 X 
Edit torrent
he.Artist.2011.DVDSCR.READNFO.XviD-ArRoWs

Type:
    Video &gt; Movies
Files:
    2
Size:
    712.95 MiB (747583816 Bytes)
Info:
    IMDB
Tag(s):
    the artist the artist 2011 the artist dvdscr the artist dvdscr 2011 
Quality:
    +1 / -0 (+1)
Uploaded:
    2012-01-19 17:42:30 GMT
By:
    Hackulus Trusted
Seeders:
    0
Leechers:
    0
Comments
    1 Write comment 

picture



Tweet Tweet
Toolbar

 Get this torrent (Get Torrent File) WATCH ONLINE FOR FREE ON TUBE+

Hollywood, 1927: As silent movie star George Valentin wonders if the arrival of talking pictures will cause him to fade into oblivion, he sparks with Peppy Miller, a young dancer set for a big break.
  
http://www.imdb.com/title/tt1655442/

General
Complete name                    : The.Artist.2011.DVDSCR.READNFO.XviD-ArRoWs\The.Artist.2011.DVDSCR.READNFO.XviD-ArRoWs.avi
Format                           : AVI
Format/Info                      : Audio Video Interleave
File size                        : 702 MiB
Duration                         : 1h 36mn
Overall bit rate                 : 1 022 Kbps
Movie name                       : VIDEO_DVD.Title37.DVDRip
Writing application              : Lavf52.33.0
Original source form/Name        : VIDEO_DVD

Video
ID                               : 0
Format                           : MPEG-4 Visual
Format profile                   : Simple@L3
Format settings, BVOP            : No
Format settings, QPel            : No
Format settings, GMC             : No warppoints
Format settings, Matrix          : Default (H.263)
Codec ID                         : XVID
Codec ID/Hint                    : XviD
Duration                         : 1h 36mn
Bit rate                         : 880 Kbps
Width                            : 600 pixels
Height                           : 444 pixels
Display aspect ratio             : 4:3
Frame rate                       : 29.970 fps
Color space                      : YUV
Chroma subsampling               : 4:2:0
Bit depth                        : 8 bits
Scan type                        : Progressive
Compression mode                 : Lossy
Bits/(Pixel*Frame)               : 0.110
Stream size                      : 605 MiB (86%)
Writing library                  : XviD 1.2.1 (UTC 2008-12-04)

Audio
ID                               : 1
Format                           : MPEG Audio
Format version                   : Version 1
Format profile                   : Layer 3
Mode                             : Joint stereo
Mode extension                   : MS Stereo
Codec ID                         : 55
Codec ID/Hint                    : MP3
Duration                         : 1h 36mn
Bit rate mode                    : Constant
Bit rate                         : 128 Kbps
Channel(s)                       : 2 channels
Sampling rate                    : 48.0 KHz
Compression mode                 : Lossy
Stream size                      : 88.0 MiB (13%)
Alignment                        : Aligned on interleaves
Interleave, duration             : 24 ms (0.72 video frame)

Tech:

VIDEO:  [XVID]  600x444  24bpp  29.970 fps  879.7 kbps (107.4 kbyte/s)
AUDIO: 48000 Hz, 2 ch, s16le, 128.0 kbit/8.33% (ratio: 16000-&gt;192000)

Audio: no dialogues, it`s a silent movie. However any text is in english.
		


 Get this torrent (Get Torrent File) WATCH ONLINE FOR FREE ON TUBE+

Trusted Hackulus at 2012-01-19 18:00 CET:
screens 
http://www.hotimg.com/direct/9Y5jFZk.png 
http://www.hotimg.com/direct/F3mBA2j.png

Logout | Preferences | Upload torrent | Language / Select language | About | Legal threats | Blog
Contact us | Usage policy | Downloads | Promo | Doodles | Search Cloud | Tag Cloud | Forum | TPB T-shirts
Bayfiles | BayImg | PasteBay | IPREDator | Follow TPB on Twitter

5.476.696 registered users. Last updated 18:00:07.
34.698.606 peers (25.294.102 seeders + 9.404.504 leechers) in 4.210.046 torrents.
RSS
[X] 
http://www.hotimg.com/direct/9Y5jFZk.png 
http://www.hotimg.com/direct/F3mBA2j.png